<mxfile host="app.diagrams.net" modified="2021-06-09T07:34:30.535Z" agent="5.0 (Windows NT 10.0; Win64; x64) AppleWebKit/537.36 (KHTML, like Gecko) Chrome/85.0.4183.102 Safari/537.36" etag="BkuUIPUdu5-MpcivNZlD" version="14.7.6" type="github">
  <diagram id="C5RBs43oDa-KdzZeNtuy" name="Page-1">
    <mxGraphModel dx="1422" dy="785" grid="1" gridSize="10" guides="1" tooltips="1" connect="1" arrows="1" fold="1" page="1" pageScale="1" pageWidth="1600" pageHeight="900" math="0" shadow="0">
      <root>
        <mxCell id="WIyWlLk6GJQsqaUBKTNV-0" />
        <mxCell id="WIyWlLk6GJQsqaUBKTNV-1" parent="WIyWlLk6GJQsqaUBKTNV-0" />
        <mxCell id="IVXzs84mX9a07etPhGoh-5" style="edgeStyle=orthogonalEdgeStyle;rounded=0;orthogonalLoop=1;jettySize=auto;html=1;" edge="1" parent="WIyWlLk6GJQsqaUBKTNV-1" source="WIyWlLk6GJQsqaUBKTNV-3" target="IVXzs84mX9a07etPhGoh-0">
          <mxGeometry relative="1" as="geometry" />
        </mxCell>
        <mxCell id="WIyWlLk6GJQsqaUBKTNV-3" value="open" style="rounded=1;whiteSpace=wrap;html=1;fontSize=12;glass=0;strokeWidth=1;shadow=0;" parent="WIyWlLk6GJQsqaUBKTNV-1" vertex="1">
          <mxGeometry x="165" y="80" width="120" height="50" as="geometry" />
        </mxCell>
        <mxCell id="IVXzs84mX9a07etPhGoh-6" style="edgeStyle=orthogonalEdgeStyle;rounded=0;orthogonalLoop=1;jettySize=auto;html=1;entryX=0.5;entryY=0;entryDx=0;entryDy=0;" edge="1" parent="WIyWlLk6GJQsqaUBKTNV-1" source="IVXzs84mX9a07etPhGoh-0" target="IVXzs84mX9a07etPhGoh-4">
          <mxGeometry relative="1" as="geometry" />
        </mxCell>
        <mxCell id="IVXzs84mX9a07etPhGoh-0" value="scan 3 QR code" style="rounded=1;whiteSpace=wrap;html=1;" vertex="1" parent="WIyWlLk6GJQsqaUBKTNV-1">
          <mxGeometry x="160" y="220" width="130" height="100" as="geometry" />
        </mxCell>
        <mxCell id="IVXzs84mX9a07etPhGoh-7" style="edgeStyle=orthogonalEdgeStyle;rounded=0;orthogonalLoop=1;jettySize=auto;html=1;" edge="1" parent="WIyWlLk6GJQsqaUBKTNV-1" source="IVXzs84mX9a07etPhGoh-4" target="IVXzs84mX9a07etPhGoh-15">
          <mxGeometry relative="1" as="geometry">
            <mxPoint x="370" y="320" as="targetPoint" />
          </mxGeometry>
        </mxCell>
        <mxCell id="IVXzs84mX9a07etPhGoh-10" style="edgeStyle=orthogonalEdgeStyle;rounded=0;orthogonalLoop=1;jettySize=auto;html=1;entryX=0.5;entryY=0;entryDx=0;entryDy=0;" edge="1" parent="WIyWlLk6GJQsqaUBKTNV-1" source="IVXzs84mX9a07etPhGoh-4" target="IVXzs84mX9a07etPhGoh-9">
          <mxGeometry relative="1" as="geometry" />
        </mxCell>
        <mxCell id="IVXzs84mX9a07etPhGoh-4" value="get detail" style="rhombus;whiteSpace=wrap;html=1;" vertex="1" parent="WIyWlLk6GJQsqaUBKTNV-1">
          <mxGeometry x="185" y="360" width="80" height="80" as="geometry" />
        </mxCell>
        <mxCell id="IVXzs84mX9a07etPhGoh-8" value="N" style="text;html=1;strokeColor=none;fillColor=none;align=center;verticalAlign=middle;whiteSpace=wrap;rounded=0;" vertex="1" parent="WIyWlLk6GJQsqaUBKTNV-1">
          <mxGeometry x="320" y="370" width="40" height="30" as="geometry" />
        </mxCell>
        <mxCell id="IVXzs84mX9a07etPhGoh-12" style="edgeStyle=orthogonalEdgeStyle;rounded=0;orthogonalLoop=1;jettySize=auto;html=1;entryX=0.5;entryY=0;entryDx=0;entryDy=0;" edge="1" parent="WIyWlLk6GJQsqaUBKTNV-1" source="IVXzs84mX9a07etPhGoh-9" target="IVXzs84mX9a07etPhGoh-11">
          <mxGeometry relative="1" as="geometry" />
        </mxCell>
        <mxCell id="IVXzs84mX9a07etPhGoh-9" value="show detail" style="rounded=1;whiteSpace=wrap;html=1;" vertex="1" parent="WIyWlLk6GJQsqaUBKTNV-1">
          <mxGeometry x="165" y="470" width="120" height="40" as="geometry" />
        </mxCell>
        <mxCell id="IVXzs84mX9a07etPhGoh-14" style="edgeStyle=orthogonalEdgeStyle;rounded=0;orthogonalLoop=1;jettySize=auto;html=1;" edge="1" parent="WIyWlLk6GJQsqaUBKTNV-1" source="IVXzs84mX9a07etPhGoh-11" target="IVXzs84mX9a07etPhGoh-13">
          <mxGeometry relative="1" as="geometry" />
        </mxCell>
        <mxCell id="IVXzs84mX9a07etPhGoh-11" value="input QTY" style="shape=parallelogram;perimeter=parallelogramPerimeter;whiteSpace=wrap;html=1;fixedSize=1;" vertex="1" parent="WIyWlLk6GJQsqaUBKTNV-1">
          <mxGeometry x="165" y="560" width="120" height="60" as="geometry" />
        </mxCell>
        <mxCell id="IVXzs84mX9a07etPhGoh-13" value="submit" style="rounded=1;whiteSpace=wrap;html=1;" vertex="1" parent="WIyWlLk6GJQsqaUBKTNV-1">
          <mxGeometry x="165" y="690" width="120" height="60" as="geometry" />
        </mxCell>
        <mxCell id="IVXzs84mX9a07etPhGoh-16" style="edgeStyle=orthogonalEdgeStyle;rounded=0;orthogonalLoop=1;jettySize=auto;html=1;" edge="1" parent="WIyWlLk6GJQsqaUBKTNV-1" source="IVXzs84mX9a07etPhGoh-15" target="IVXzs84mX9a07etPhGoh-0">
          <mxGeometry relative="1" as="geometry" />
        </mxCell>
        <mxCell id="IVXzs84mX9a07etPhGoh-15" value="rescan" style="ellipse;whiteSpace=wrap;html=1;" vertex="1" parent="WIyWlLk6GJQsqaUBKTNV-1">
          <mxGeometry x="340" y="230" width="120" height="80" as="geometry" />
        </mxCell>
      </root>
    </mxGraphModel>
  </diagram>
</mxfile>
